HIERARCHY
ROOT Hips
{
    OFFSET 0.0 0.0 0.0
    CHANNELS 6 Xposition Yposition Zposition Zrotation Xrotation Yrotation
    JOINT Spine
    {
        OFFSET 0.0 5.0 0.0
        CHANNELS 3 Zrotation Xrotation Yrotation
        JOINT Chest
        {
            OFFSET 0.0 5.0 0.0
            CHANNELS 3 Zrotation Xrotation Yrotation
            JOINT Neck
            {
                OFFSET 0.0 8.0 0.0
                CHANNELS 3 Zrotation Xrotation Yrotation
                JOINT Head
                {
                    OFFSET 0.0 5.0 0.0
                    CHANNELS 3 Zrotation Xrotation Yrotation
                    End Site
                    {
                        OFFSET 0.0 3.0 0.0
                    }
                }
            }
            JOINT LeftShoulder
            {
                OFFSET -5.0 0.0 0.0
                CHANNELS 3 Zrotation Xrotation Yrotation
                JOINT LeftArm
                {
                    OFFSET 0.0 -10.0 0.0
                    CHANNELS 3 Zrotation Xrotation Yrotation
                    JOINT LeftForeArm
                    {
                        OFFSET 0.0 -10.0 0.0
                        CHANNELS 3 Zrotation Xrotation Yrotation
                        End Site
                        {
                            OFFSET 0.0 -3.0 0.0
                        }
                    }
                }
            }
        }
    }
}

MOTION
Frames: 22
Frame Time: 0.033333
960.000000 445.000000 103.106720 0.000000 0.000000 0.000000 0.000000 0.000000 0.000000 23.025492 -17.192119 0.000000 180.000000 -0.640455 0.000000 21.801409 0.892432 -0.000000 158.198591 5.772118 30.000000 15.945396 0.844575 0.000000 18.000000 -0.959831 0.000000
1691.525230 140.756605 107.845817 0.000000 0.000000 0.000000 0.000000 0.000000 0.000000 -163.376529 3.079541 4.973798 16.623471 0.209744 4.973798 -171.853121 -3.366619 3.759997 99.744051 -0.767974 29.763441 -171.126653 -3.562638 -3.759997 0.673538 0.377819 0.313953
1636.048050 128.802021 124.595803 0.000000 0.000000 0.000000 0.000000 0.000000 0.000000 157.904128 -15.803831 9.635073 -22.095872 -3.280384 9.635073 -171.936471 -3.829279 7.460697 -143.675701 -2.135425 29.057495 -173.500805 -4.062946 -7.460697 0.570999 0.416775 0.626666
1578.156967 80.474526 102.941566 0.000000 0.000000 0.000000 0.000000 0.000000 0.000000 -139.519796 8.517283 13.690942 40.480204 -6.673306 13.690942 -174.507724 -3.837899 11.043737 119.111399 -17.761389 27.893295 -173.607258 -3.512025 -11.043737 0.461920 0.457634 0.936907
960.418757 444.998421 99.667092 0.000000 0.000000 0.000000 0.000000 0.000000 0.000000 25.077893 13.126840 16.886559 180.000000 0.845727 16.886559 23.861935 -2.452563 14.452610 156.138065 -2.725485 26.289200 17.903699 -2.490212 -14.452610 18.000000 0.873198 1.243449
960.523360 444.997533 116.264711 0.000000 0.000000 0.000000 0.000000 0.000000 0.000000 25.638906 6.252054 19.021130 180.000000 -20.267795 19.021130 24.425035 15.220167 17.633558 155.574965 -1.465592 24.270510 18.452907 -3.810263 -17.633558 18.000000 0.925868 1.545085
960.627905 444.996447 129.184125 0.000000 0.000000 0.000000 0.000000 0.000000 0.000000 26.219073 -24.458552 19.960535 180.000000 2.678741 19.960535 25.006291 -7.371836 20.536413 154.993709 2.653791 21.869059 19.024920 -12.475382 -20.536413 18.000000 1.621438 1.840623
1126.242828 420.359820 130.574981 0.000000 0.000000 0.000000 0.000000 0.000000 0.000000 31.410514 0.591171 19.645745 -148.589486 -1.646065 19.645745 32.280463 1.668221 23.115397 -131.603972 0.384575 19.122720 45.585331 -0.546925 -23.115397 -13.449727 -0.233296 2.128896
1257.895088 650.549197 126.867425 0.000000 0.000000 0.000000 0.000000 0.000000 0.000000 25.073180 4.238536 18.096541 -154.926820 15.670358 18.096541 46.260945 -3.626782 25.329838 -154.651428 -5.042862 16.074804 27.339487 4.954187 -25.329838 -13.619892 0.953536 2.408768
960.941083 444.992008 151.342775 0.000000 0.000000 0.000000 0.000000 0.000000 0.000000 28.072001 6.051795 15.410265 180.000000 10.875274 15.410265 26.849221 -2.988083 27.144812 153.150779 -0.186936 12.773379 20.864045 2.248432 -27.144812 18.000000 -0.296913 2.679134
1163.815842 547.748709 152.382466 0.000000 0.000000 0.000000 0.000000 0.000000 0.000000 117.162728 -13.702701 11.755705 -62.837272 0.377353 11.755705 102.363764 5.709493 28.531695 -47.376450 -3.866007 9.270510 104.768601 1.518397 -28.531695 -6.003489 0.189319 2.938926
961.149372 444.988063 144.990779 0.000000 0.000000 0.000000 0.000000 0.000000 0.000000 29.395983 11.726724 7.362491 180.000000 -0.085573 7.362491 28.146217 1.653290 29.468618 151.853783 15.218347 5.621439 22.170006 -12.838505 -29.468618 18.000000 -0.373099 3.187120
1136.717377 590.104480 146.598525 0.000000 0.000000 0.000000 0.000000 0.000000 0.000000 115.752126 -10.812403 2.506665 -64.247874 11.339583 2.506665 73.638146 -1.400273 29.940802 -21.842452 4.585011 1.883716 75.369282 6.489612 -29.940802 -6.767207 -0.386802 3.422736
1163.079758 634.077559 148.010498 0.000000 0.000000 0.000000 0.000000 0.000000 0.000000 132.174340 -6.968568 -2.506665 -47.825660 11.918777 -2.506665 94.255711 -9.766351 29.940802 -149.364979 -6.379079 -1.883716 30.021641 6.479015 -29.940802 -5.096180 -2.255806 3.644843
961.460830 444.980668 153.274984 0.000000 0.000000 0.000000 0.000000 0.000000 0.000000 31.497152 -4.244618 -7.362491 180.000000 21.553915 -7.362491 30.152455 -16.895451 29.468618 149.847545 13.932210 -5.621439 24.175589 -7.330146 -29.468618 18.000000 0.734602 3.852566
1097.449951 565.089898 140.976820 0.000000 0.000000 0.000000 0.000000 0.000000 0.000000 -119.219568 -7.592065 -11.755705 60.780432 5.397844 -11.755705 -150.180642 -6.625914 28.531695 48.804955 3.166174 -9.270510 -149.874178 -6.057992 -28.531695 2.713854 0.693215 4.045085
1114.140244 528.302071 136.459806 0.000000 0.000000 0.000000 0.000000 0.000000 0.000000 -142.671523 0.334668 -15.410265 37.328477 0.660138 -15.410265 -177.395681 -4.673596 27.144812 34.687329 0.030698 -12.773379 161.894167 -3.166027 -27.144812 -0.910956 0.071249 4.221640
1116.433640 479.728639 154.567864 0.000000 0.000000 0.000000 0.000000 0.000000 0.000000 -102.267481 2.113641 -18.096541 77.732519 -3.409683 -18.096541 -163.695626 -2.667541 25.329838 38.575767 -0.240921 -16.074804 -176.001122 -0.974211 -25.329838 0.706594 0.055556 4.381533
1135.931282 466.493965 159.769874 0.000000 0.000000 0.000000 0.000000 0.000000 0.000000 -112.868406 9.230588 -19.645745 67.131594 -4.197985 -19.645745 -159.517862 1.935706 23.115397 36.204678 -1.222279 -19.122720 -154.426613 -5.920567 -23.115397 2.428729 0.600768 4.524135
1141.618767 467.420679 156.932141 0.000000 0.000000 0.000000 0.000000 0.000000 0.000000 -123.086385 5.555764 -19.960535 56.913615 -9.294154 -19.960535 -154.885724 1.879578 20.536413 36.481623 -3.631849 -21.869059 -153.965441 -5.542366 -20.536413 2.446728 0.488678 4.648882
1150.647926 469.370956 135.825899 0.000000 0.000000 0.000000 0.000000 0.000000 0.000000 -43.953779 4.967036 -19.021130 136.046221 -12.345852 -19.021130 -154.327268 -6.767272 17.633558 60.745168 -3.403749 -24.270510 -153.350642 -6.405240 -17.633558 2.386216 0.638910 4.755283
1151.529922 496.420240 134.219465 0.000000 0.000000 0.000000 0.000000 0.000000 0.000000 -116.362129 -8.437813 -16.886559 63.637871 -3.242662 -16.886559 -149.081043 -0.828865 14.452610 35.941860 3.645371 -26.289200 -156.847177 0.466143 -14.452610 2.056513 -0.119847 4.842916
